<?xml version="1.0" standalone="no"?>
<!DOCTYPE svg PUBLIC "-//W3C//DTD SVG 20010904//EN"
 "http://www.w3.org/TR/2001/REC-SVG-20010904/DTD/svg10.dtd">
<svg version="1.0" xmlns="http://www.w3.org/2000/svg"
 width="149.000000pt" height="152.000000pt" viewBox="0 0 149.000000 152.000000"
 preserveAspectRatio="xMidYMid meet">
<metadata>
Created by potrace 1.11, written by Peter Selinger 2001-2013
</metadata>
<g transform="translate(0.000000,152.000000) scale(0.100000,-0.100000)"
fill="#000000" stroke="none">
<path d="M388 1486 c-21 -18 -38 -37 -38 -43 0 -5 12 -20 28 -34 57 -52 55
-52 95 -11 l37 38 -43 41 -42 41 -37 -32z"/>
<path d="M153 1267 l-151 -142 43 -44 44 -44 139 131 c77 73 144 138 150 145
9 10 2 23 -31 55 l-42 41 -152 -142z"/>
<path d="M323 1107 l-151 -142 43 -44 44 -44 87 83 c49 45 103 89 120 96 60
25 121 -16 95 -64 -5 -10 -53 -60 -107 -111 l-97 -93 43 -43 43 -44 109 102
c113 104 148 154 148 206 0 56 -78 121 -146 121 -26 0 -26 1 -11 18 16 17 14
21 -26 59 l-42 42 -152 -142z"/>
<path d="M1118 796 c-21 -18 -38 -37 -38 -43 0 -5 12 -20 28 -34 57 -52 55
-52 95 -11 l37 38 -43 41 -42 41 -37 -32z"/>
<path d="M669 784 l-33 -34 72 -72 72 -72 35 34 c19 19 35 36 35 39 0 4 -33
36 -74 73 l-73 67 -34 -35z"/>
<path d="M883 577 l-151 -142 43 -44 44 -44 139 131 c77 73 144 138 150 145 9
10 2 23 -31 55 l-42 41 -152 -142z"/>
<path d="M1053 417 l-151 -142 43 -44 44 -44 87 83 c49 45 103 89 120 96 60
25 121 -16 95 -64 -5 -10 -53 -60 -107 -111 l-97 -93 43 -43 43 -44 109 102
c113 104 148 154 148 206 0 56 -78 121 -146 121 -26 0 -26 1 -11 18 16 17 14
21 -26 59 l-42 42 -152 -142z"/>
</g>
</svg>
